<mxfile host="app.diagrams.net" modified="2021-04-16T16:23:12.394Z" agent="5.0 (Windows NT 10.0; Win64; x64) AppleWebKit/537.36 (KHTML, like Gecko) Chrome/90.0.4430.72 Safari/537.36" etag="SdgUx794QaLuXWHU_1cG" version="14.6.1" type="github">
  <diagram id="gHFNYnrsrtrEeCh-4cgK" name="Page-1">
    <mxGraphModel dx="1635" dy="877" grid="1" gridSize="10" guides="1" tooltips="1" connect="1" arrows="1" fold="1" page="1" pageScale="1" pageWidth="850" pageHeight="1100" math="0" shadow="0">
      <root>
        <mxCell id="0" />
        <mxCell id="1" parent="0" />
        <mxCell id="8HptM5nIuK6zuVoR04j4-11" value="" style="endArrow=none;html=1;entryX=0;entryY=0.5;entryDx=0;entryDy=0;entryPerimeter=0;exitX=0.375;exitY=0.5;exitDx=0;exitDy=0;exitPerimeter=0;" edge="1" parent="1" source="8HptM5nIuK6zuVoR04j4-9" target="8HptM5nIuK6zuVoR04j4-3">
          <mxGeometry width="50" height="50" relative="1" as="geometry">
            <mxPoint x="160" y="550" as="sourcePoint" />
            <mxPoint x="210" y="500" as="targetPoint" />
          </mxGeometry>
        </mxCell>
        <mxCell id="8HptM5nIuK6zuVoR04j4-40" value="" style="endArrow=none;html=1;exitX=0.313;exitY=0.625;exitDx=0;exitDy=0;exitPerimeter=0;" edge="1" parent="1" source="8HptM5nIuK6zuVoR04j4-39">
          <mxGeometry width="50" height="50" relative="1" as="geometry">
            <mxPoint x="130" y="660" as="sourcePoint" />
            <mxPoint x="800" y="200" as="targetPoint" />
          </mxGeometry>
        </mxCell>
        <mxCell id="oYDoOZac3hvdo6MkUvr5-17" value="" style="group" parent="1" vertex="1" connectable="0">
          <mxGeometry x="140" y="160" width="560" height="82.5" as="geometry" />
        </mxCell>
        <mxCell id="oYDoOZac3hvdo6MkUvr5-16" value="Batman V" style="strokeWidth=2;html=1;shape=mxgraph.flowchart.direct_data;whiteSpace=wrap;fillColor=#ffe6cc;strokeColor=#d79b00;" parent="oYDoOZac3hvdo6MkUvr5-17" vertex="1">
          <mxGeometry y="21.45" width="96.55172413793102" height="39.6" as="geometry" />
        </mxCell>
        <mxCell id="oYDoOZac3hvdo6MkUvr5-14" value="vxlan" style="strokeWidth=2;html=1;shape=mxgraph.flowchart.direct_data;whiteSpace=wrap;fillColor=#dae8fc;strokeColor=#6c8ebf;" parent="oYDoOZac3hvdo6MkUvr5-17" vertex="1">
          <mxGeometry x="77.24137931034483" y="9.9" width="125.51724137931033" height="62.7" as="geometry" />
        </mxCell>
        <mxCell id="oYDoOZac3hvdo6MkUvr5-8" value="Wireguard" style="strokeWidth=2;html=1;shape=mxgraph.flowchart.direct_data;whiteSpace=wrap;fillColor=#d5e8d4;strokeColor=#82b366;" parent="oYDoOZac3hvdo6MkUvr5-17" vertex="1">
          <mxGeometry x="173.79310344827587" width="193.10344827586204" height="82.5" as="geometry" />
        </mxCell>
        <mxCell id="oYDoOZac3hvdo6MkUvr5-10" value="vxlan" style="strokeWidth=2;html=1;shape=mxgraph.flowchart.direct_data;whiteSpace=wrap;fillColor=#dae8fc;strokeColor=#6c8ebf;" parent="oYDoOZac3hvdo6MkUvr5-17" vertex="1">
          <mxGeometry x="347.58620689655174" y="9.9" width="125.51724137931033" height="62.7" as="geometry" />
        </mxCell>
        <mxCell id="oYDoOZac3hvdo6MkUvr5-13" value="Batman V" style="strokeWidth=2;html=1;shape=mxgraph.flowchart.direct_data;whiteSpace=wrap;fillColor=#ffe6cc;strokeColor=#d79b00;" parent="oYDoOZac3hvdo6MkUvr5-17" vertex="1">
          <mxGeometry x="463.44827586206895" y="21.45" width="96.55172413793102" height="39.6" as="geometry" />
        </mxCell>
        <mxCell id="oYDoOZac3hvdo6MkUvr5-21" value="" style="endArrow=none;html=1;entryX=0.895;entryY=0.469;entryDx=0;entryDy=0;entryPerimeter=0;" parent="1" source="8HptM5nIuK6zuVoR04j4-8" target="oYDoOZac3hvdo6MkUvr5-13" edge="1">
          <mxGeometry width="50" height="50" relative="1" as="geometry">
            <mxPoint x="770" y="201.25" as="sourcePoint" />
            <mxPoint x="450" y="420" as="targetPoint" />
          </mxGeometry>
        </mxCell>
        <mxCell id="oYDoOZac3hvdo6MkUvr5-22" value="" style="endArrow=none;html=1;exitX=0;exitY=0.5;exitDx=0;exitDy=0;exitPerimeter=0;entryX=0.5;entryY=0.5;entryDx=0;entryDy=0;entryPerimeter=0;" parent="1" source="oYDoOZac3hvdo6MkUvr5-16" target="oYDoOZac3hvdo6MkUvr5-20" edge="1">
          <mxGeometry width="50" height="50" relative="1" as="geometry">
            <mxPoint x="400" y="470" as="sourcePoint" />
            <mxPoint x="130" y="350" as="targetPoint" />
          </mxGeometry>
        </mxCell>
        <mxCell id="8HptM5nIuK6zuVoR04j4-9" value="Client 1" style="image;html=1;image=img/lib/clip_art/computers/Laptop_128x128.png" vertex="1" parent="1">
          <mxGeometry x="285" y="440" width="80" height="80" as="geometry" />
        </mxCell>
        <mxCell id="8HptM5nIuK6zuVoR04j4-10" value="" style="group;rotation=-30;" vertex="1" connectable="0" parent="1">
          <mxGeometry x="390" y="320" width="290" height="62.69999999999999" as="geometry" />
        </mxCell>
        <mxCell id="8HptM5nIuK6zuVoR04j4-3" value="Batman V" style="strokeWidth=2;html=1;shape=mxgraph.flowchart.direct_data;whiteSpace=wrap;fillColor=#ffe6cc;strokeColor=#d79b00;rotation=-30;" vertex="1" parent="8HptM5nIuK6zuVoR04j4-10">
          <mxGeometry x="13" y="60" width="96.55172413793102" height="39.6" as="geometry" />
        </mxCell>
        <mxCell id="8HptM5nIuK6zuVoR04j4-6" value="vxlan" style="strokeWidth=2;html=1;shape=mxgraph.flowchart.direct_data;whiteSpace=wrap;fillColor=#dae8fc;strokeColor=#6c8ebf;rotation=-30;" vertex="1" parent="8HptM5nIuK6zuVoR04j4-10">
          <mxGeometry x="79" y="2" width="125.51724137931033" height="62.7" as="geometry" />
        </mxCell>
        <mxCell id="8HptM5nIuK6zuVoR04j4-7" value="Batman V" style="strokeWidth=2;html=1;shape=mxgraph.flowchart.direct_data;whiteSpace=wrap;fillColor=#ffe6cc;strokeColor=#d79b00;rotation=-30;" vertex="1" parent="8HptM5nIuK6zuVoR04j4-10">
          <mxGeometry x="182" y="-37" width="96.55172413793102" height="39.6" as="geometry" />
        </mxCell>
        <mxCell id="8HptM5nIuK6zuVoR04j4-12" value="" style="endArrow=none;html=1;entryX=0.5;entryY=0.484;entryDx=0;entryDy=0;entryPerimeter=0;exitX=0.908;exitY=0.417;exitDx=0;exitDy=0;exitPerimeter=0;" edge="1" parent="1" source="8HptM5nIuK6zuVoR04j4-7" target="8HptM5nIuK6zuVoR04j4-8">
          <mxGeometry width="50" height="50" relative="1" as="geometry">
            <mxPoint x="290" y="550" as="sourcePoint" />
            <mxPoint x="750" y="340" as="targetPoint" />
          </mxGeometry>
        </mxCell>
        <mxCell id="8HptM5nIuK6zuVoR04j4-13" value="" style="group;rotation=-90;" vertex="1" connectable="0" parent="1">
          <mxGeometry x="655" y="410" width="290" height="62.69999999999999" as="geometry" />
        </mxCell>
        <mxCell id="8HptM5nIuK6zuVoR04j4-14" value="Batman V" style="strokeWidth=2;html=1;shape=mxgraph.flowchart.direct_data;whiteSpace=wrap;fillColor=#ffe6cc;strokeColor=#d79b00;rotation=-90;" vertex="1" parent="8HptM5nIuK6zuVoR04j4-13">
          <mxGeometry x="97" y="108" width="96.55172413793102" height="39.6" as="geometry" />
        </mxCell>
        <mxCell id="8HptM5nIuK6zuVoR04j4-15" value="vxlan" style="strokeWidth=2;html=1;shape=mxgraph.flowchart.direct_data;whiteSpace=wrap;fillColor=#dae8fc;strokeColor=#6c8ebf;rotation=-90;" vertex="1" parent="8HptM5nIuK6zuVoR04j4-13">
          <mxGeometry x="82" y="4" width="125.51724137931033" height="62.7" as="geometry" />
        </mxCell>
        <mxCell id="8HptM5nIuK6zuVoR04j4-16" value="Batman V" style="strokeWidth=2;html=1;shape=mxgraph.flowchart.direct_data;whiteSpace=wrap;fillColor=#ffe6cc;strokeColor=#d79b00;rotation=-90;" vertex="1" parent="8HptM5nIuK6zuVoR04j4-13">
          <mxGeometry x="97" y="-85" width="96.55172413793102" height="39.6" as="geometry" />
        </mxCell>
        <mxCell id="8HptM5nIuK6zuVoR04j4-17" value="" style="endArrow=none;html=1;entryX=0;entryY=0.5;entryDx=0;entryDy=0;entryPerimeter=0;" edge="1" parent="1" target="8HptM5nIuK6zuVoR04j4-14">
          <mxGeometry width="50" height="50" relative="1" as="geometry">
            <mxPoint x="800" y="700" as="sourcePoint" />
            <mxPoint x="350" y="670" as="targetPoint" />
          </mxGeometry>
        </mxCell>
        <mxCell id="8HptM5nIuK6zuVoR04j4-18" value="" style="endArrow=none;html=1;exitX=0.883;exitY=0.462;exitDx=0;exitDy=0;exitPerimeter=0;" edge="1" parent="1" source="8HptM5nIuK6zuVoR04j4-16">
          <mxGeometry width="50" height="50" relative="1" as="geometry">
            <mxPoint x="420" y="630" as="sourcePoint" />
            <mxPoint x="800" y="200" as="targetPoint" />
          </mxGeometry>
        </mxCell>
        <mxCell id="8HptM5nIuK6zuVoR04j4-19" value="Client 3" style="image;html=1;image=img/lib/clip_art/computers/Laptop_128x128.png" vertex="1" parent="1">
          <mxGeometry x="360" y="650" width="80" height="80" as="geometry" />
        </mxCell>
        <mxCell id="8HptM5nIuK6zuVoR04j4-27" value="Node 2" style="image;html=1;image=img/lib/clip_art/networking/Wireless_Router_128x128.png" vertex="1" parent="1">
          <mxGeometry x="440" y="880" width="80" height="80" as="geometry" />
        </mxCell>
        <mxCell id="8HptM5nIuK6zuVoR04j4-29" value="" style="group" vertex="1" connectable="0" parent="1">
          <mxGeometry x="449.6446609406726" y="664.4446609406725" width="290.7106781186548" height="75.91067811865491" as="geometry" />
        </mxCell>
        <mxCell id="8HptM5nIuK6zuVoR04j4-20" value="Batman V" style="strokeWidth=2;html=1;shape=mxgraph.flowchart.direct_data;whiteSpace=wrap;fillColor=#ffe6cc;strokeColor=#d79b00;rotation=0;" vertex="1" parent="8HptM5nIuK6zuVoR04j4-29">
          <mxGeometry x="70.35533905932738" y="15.55533905932748" width="156.55" height="39.6" as="geometry" />
        </mxCell>
        <mxCell id="8HptM5nIuK6zuVoR04j4-25" value="" style="pointerEvents=1;shadow=0;dashed=0;html=1;strokeColor=none;fillColor=#434445;aspect=fixed;labelPosition=center;verticalLabelPosition=bottom;verticalAlign=top;align=center;outlineConnect=0;shape=mxgraph.vvd.wi_fi;rotation=45;" vertex="1" parent="8HptM5nIuK6zuVoR04j4-29">
          <mxGeometry x="10.355339059327378" y="10.355339059327434" width="50" height="50" as="geometry" />
        </mxCell>
        <mxCell id="8HptM5nIuK6zuVoR04j4-26" value="" style="pointerEvents=1;shadow=0;dashed=0;html=1;strokeColor=none;fillColor=#434445;aspect=fixed;labelPosition=center;verticalLabelPosition=bottom;verticalAlign=top;align=center;outlineConnect=0;shape=mxgraph.vvd.wi_fi;rotation=-135;" vertex="1" parent="8HptM5nIuK6zuVoR04j4-29">
          <mxGeometry x="230.35533905932738" y="15.55533905932748" width="50" height="50" as="geometry" />
        </mxCell>
        <mxCell id="8HptM5nIuK6zuVoR04j4-30" value="" style="group;rotation=-30;" vertex="1" connectable="0" parent="1">
          <mxGeometry x="490.00466094067264" y="790.0046609406725" width="290.7106781186548" height="75.91067811865491" as="geometry" />
        </mxCell>
        <mxCell id="8HptM5nIuK6zuVoR04j4-31" value="Batman V" style="strokeWidth=2;html=1;shape=mxgraph.flowchart.direct_data;whiteSpace=wrap;fillColor=#ffe6cc;strokeColor=#d79b00;rotation=-30;" vertex="1" parent="8HptM5nIuK6zuVoR04j4-30">
          <mxGeometry x="69" y="14" width="156.55" height="39.6" as="geometry" />
        </mxCell>
        <mxCell id="8HptM5nIuK6zuVoR04j4-32" value="" style="pointerEvents=1;shadow=0;dashed=0;html=1;strokeColor=none;fillColor=#434445;aspect=fixed;labelPosition=center;verticalLabelPosition=bottom;verticalAlign=top;align=center;outlineConnect=0;shape=mxgraph.vvd.wi_fi;rotation=15;" vertex="1" parent="8HptM5nIuK6zuVoR04j4-30">
          <mxGeometry x="23" y="66" width="50" height="50" as="geometry" />
        </mxCell>
        <mxCell id="8HptM5nIuK6zuVoR04j4-33" value="" style="pointerEvents=1;shadow=0;dashed=0;html=1;strokeColor=none;fillColor=#434445;aspect=fixed;labelPosition=center;verticalLabelPosition=bottom;verticalAlign=top;align=center;outlineConnect=0;shape=mxgraph.vvd.wi_fi;rotation=-165;" vertex="1" parent="8HptM5nIuK6zuVoR04j4-30">
          <mxGeometry x="217" y="-40" width="50" height="50" as="geometry" />
        </mxCell>
        <mxCell id="8HptM5nIuK6zuVoR04j4-34" value="Client 4" style="image;html=1;image=img/lib/clip_art/computers/Laptop_128x128.png" vertex="1" parent="1">
          <mxGeometry x="200" y="870" width="80" height="80" as="geometry" />
        </mxCell>
        <mxCell id="8HptM5nIuK6zuVoR04j4-36" value="" style="pointerEvents=1;shadow=0;dashed=0;html=1;strokeColor=none;fillColor=#434445;aspect=fixed;labelPosition=center;verticalLabelPosition=bottom;verticalAlign=top;align=center;outlineConnect=0;shape=mxgraph.vvd.wi_fi;rotation=45;" vertex="1" parent="1">
          <mxGeometry x="300" y="894.8" width="50" height="50" as="geometry" />
        </mxCell>
        <mxCell id="8HptM5nIuK6zuVoR04j4-37" value="" style="pointerEvents=1;shadow=0;dashed=0;html=1;strokeColor=none;fillColor=#434445;aspect=fixed;labelPosition=center;verticalLabelPosition=bottom;verticalAlign=top;align=center;outlineConnect=0;shape=mxgraph.vvd.wi_fi;rotation=-135;" vertex="1" parent="1">
          <mxGeometry x="370" y="900" width="50" height="50" as="geometry" />
        </mxCell>
        <mxCell id="8HptM5nIuK6zuVoR04j4-39" value="Client 2" style="image;html=1;image=img/lib/clip_art/computers/Laptop_128x128.png" vertex="1" parent="1">
          <mxGeometry x="385" y="520" width="80" height="80" as="geometry" />
        </mxCell>
        <mxCell id="oYDoOZac3hvdo6MkUvr5-20" value="Gateway 1" style="image;html=1;image=img/lib/clip_art/computers/Server_Tower_128x128.png" parent="1" vertex="1">
          <mxGeometry x="30" y="161.25" width="80" height="80" as="geometry" />
        </mxCell>
        <mxCell id="8HptM5nIuK6zuVoR04j4-8" value="Offloader 1&lt;br&gt;" style="image;html=1;image=img/lib/clip_art/networking/Router_128x128.png" vertex="1" parent="1">
          <mxGeometry x="760" y="161.25" width="80" height="80" as="geometry" />
        </mxCell>
        <mxCell id="8HptM5nIuK6zuVoR04j4-1" value="Node 1" style="image;html=1;image=img/lib/clip_art/networking/Wireless_Router_128x128.png" vertex="1" parent="1">
          <mxGeometry x="760" y="650" width="80" height="80" as="geometry" />
        </mxCell>
      </root>
    </mxGraphModel>
  </diagram>
</mxfile>
